<?xml version="1.0" encoding="UTF-8"?>
<svg xmlns="http://www.w3.org/2000/svg" xmlns:xlink="http://www.w3.org/1999/xlink" width="24pt" height="24pt" viewBox="0 0 24 24" version="1.1">
<g id="surface1">
<path style=" stroke:none;fill-rule:nonzero;fill:rgb(86.666667%,17.254902%,15.686275%);fill-opacity:1;" d="M 11.984375 20.921875 C 9.488281 20.933594 6.988281 20.902344 4.496094 20.765625 C 3.683594 20.71875 2.875 20.648438 2.136719 20.25 C 1.644531 19.984375 1.265625 19.613281 1.027344 19.085938 C 0.625 18.214844 0.496094 17.296875 0.421875 16.359375 C 0.261719 14.421875 0.253906 12.488281 0.335938 10.554688 C 0.378906 9.53125 0.414062 8.492188 0.65625 7.484375 C 0.75 7.09375 0.886719 6.707031 1.070312 6.34375 C 1.5 5.484375 2.25 5.058594 3.15625 4.878906 C 3.914062 4.730469 4.691406 4.734375 5.464844 4.703125 C 8.085938 4.59375 10.710938 4.539062 13.335938 4.566406 C 15.355469 4.589844 17.382812 4.640625 19.402344 4.742188 C 20.023438 4.777344 20.652344 4.785156 21.25 5.007812 C 22.054688 5.304688 22.65625 5.8125 22.976562 6.632812 C 23.292969 7.421875 23.414062 8.234375 23.480469 9.074219 C 23.664062 11.351562 23.667969 13.632812 23.515625 15.910156 C 23.464844 16.679688 23.414062 17.445312 23.210938 18.203125 C 22.757812 19.9375 21.675781 20.617188 20.085938 20.722656 C 18.390625 20.835938 16.6875 20.898438 14.984375 20.921875 C 13.988281 20.929688 12.984375 20.921875 11.984375 20.921875 Z M 9.523438 16.125 C 11.792969 14.882812 14.035156 13.65625 16.3125 12.40625 C 14.03125 11.15625 11.789062 9.933594 9.523438 8.691406 C 9.523438 11.1875 9.523438 13.640625 9.523438 16.125 Z M 9.523438 16.125 "/>
<path style=" stroke:none;fill-rule:nonzero;fill:rgb(99.607843%,99.215686%,99.215686%);fill-opacity:1;" d="M 9.523438 16.125 C 9.523438 13.640625 9.523438 11.1875 9.523438 8.695312 C 11.789062 9.933594 14.03125 11.160156 16.3125 12.414062 C 14.035156 13.660156 11.792969 14.882812 9.523438 16.125 Z M 9.523438 16.125 "/>
</g>
</svg>
